<svg width="34.9091" height="34.9091" overflow="visible" viewBox="0 0 34.9091 34.9091" fill="none" xmlns="http://www.w3.org/2000/svg">
<g id="icon" clip-path="url(#clip0_0_77)">
<path id="Vector" d="M16.8305 16.7462H0C0.000570224 17.7442 0.197983 18.7324 0.580936 19.6541C0.96389 20.5757 1.52486 21.4128 2.23175 22.1174C2.93863 22.822 3.77753 23.3802 4.70044 23.7602C5.62335 24.1401 6.61213 24.3343 7.61018 24.3316H10.7084V27.3236C10.7084 29.3349 11.5071 31.2639 12.9291 32.6863C14.351 34.1088 16.2796 34.9083 18.2909 34.9091V18.208C18.2909 17.8203 18.1369 17.4485 17.8628 17.1743C17.5886 16.9002 17.2168 16.7462 16.8291 16.7462H16.8305ZM25.1549 8.37382H8.34327C8.34366 10.3854 9.14301 12.3144 10.5655 13.7366C11.988 15.1588 13.9172 15.9578 15.9287 15.9578H19.0255V18.9513C19.027 20.9625 19.8267 22.8908 21.249 24.3128C22.6712 25.7348 24.5997 26.5341 26.6109 26.5353V9.82982C26.6109 9.44366 26.4575 9.07332 26.1845 8.80027C25.9114 8.52722 25.5411 8.37382 25.1549 8.37382ZM33.4735 0H16.6618C16.6618 2.01179 17.461 3.94118 18.8835 5.36373C20.3061 6.78628 22.2355 7.58545 24.2473 7.58545H27.344V10.5775C27.3455 12.5847 28.1426 14.5095 29.5606 15.9302C30.9786 17.3509 32.9018 18.1517 34.9091 18.1571V1.46182C34.9107 1.07816 34.7607 0.709386 34.4919 0.435655C34.2231 0.161925 33.8571 0.00536269 33.4735 0Z" fill="#0052CC"/>
</g>
<defs>
<clipPath id="clip0_0_77">
<rect width="34.9091" height="34.9091" fill="white"/>
</clipPath>
</defs>
</svg>
