<svg width="34.9091" height="34.9091" overflow="visible" viewBox="0 0 34.9091 34.9091" fill="none" xmlns="http://www.w3.org/2000/svg">
<g id="icon" clip-path="url(#clip0_0_86)">
<path id="Vector" d="M33.6727 3.7629L26.4873 0.305444C26.0812 0.10989 25.6243 0.0454377 25.18 0.121013C24.7357 0.196588 24.3258 0.408451 24.0073 0.727262L10.2473 13.28L4.25453 8.73017C3.98417 8.5251 3.65056 8.42112 3.31155 8.43626C2.97255 8.45141 2.64954 8.58472 2.39853 8.81308L0.475625 10.5614C0.325778 10.6977 0.206026 10.8637 0.124037 11.0488C0.0420467 11.234 -0.000374609 11.4343 -0.000511531 11.6368C-0.000648452 11.8393 0.0415021 12.0396 0.123241 12.2249C0.204981 12.4101 0.324508 12.5763 0.47417 12.7127L5.67126 17.4545L0.47417 22.1964C0.324508 22.3328 0.204981 22.4989 0.123241 22.6842C0.0415021 22.8695 -0.000648452 23.0698 -0.000511531 23.2723C-0.000374609 23.4748 0.0420467 23.6751 0.124037 23.8602C0.206026 24.0454 0.325778 24.2114 0.475625 24.3476L2.39999 26.0945C2.65099 26.3229 2.974 26.4562 3.31301 26.4714C3.65201 26.4865 3.98562 26.3825 4.25599 26.1774L10.2487 21.6276L24.0087 34.1804C24.327 34.4992 24.7366 34.7112 25.1807 34.7867C25.6248 34.8623 26.0814 34.7978 26.4873 34.6022L33.6756 31.1447C34.0455 30.9662 34.3574 30.687 34.5756 30.3391C34.7938 29.9912 34.9094 29.5888 34.9091 29.1782V5.72944C34.9091 5.31849 34.7931 4.91587 34.5744 4.56796C34.3556 4.22004 34.0431 3.94098 33.6727 3.7629ZM26.1876 25.3789L15.7469 17.4545L26.1876 9.53017V25.3789Z" fill="#007ACC"/>
</g>
<defs>
<clipPath id="clip0_0_86">
<rect width="34.9091" height="34.9091" fill="white"/>
</clipPath>
</defs>
</svg>
